<svg width="64" height="63" viewBox="0 0 64 63" fill="none" xmlns="http://www.w3.org/2000/svg">
<path d="M28.6499 23.4499C28.6499 24.0999 28.6499 26.9999 28.6499 26.9999H26.0499V31.3399H28.6499V44.2199H33.9899V31.3399H37.5699C37.5699 31.3399 37.9099 29.2599 38.0699 26.9899C37.5999 26.9899 34.0099 26.9899 34.0099 26.9899C34.0099 26.9899 34.0099 24.47 34.0099 24.03C34.0099 23.59 34.59 22.9899 35.17 22.9899C35.74 22.9899 36.9499 22.9899 38.0799 22.9899C38.0799 22.3999 38.0799 20.3599 38.0799 18.4799C36.5799 18.4799 34.8799 18.4799 34.1299 18.4799C28.5099 18.4599 28.6499 22.7999 28.6499 23.4499Z" fill="url(#paint0_linear)"/>
<path d="M32.06 62.54C14.85 62.54 0.849976 48.54 0.849976 31.33C0.849976 14.12 14.85 0.119995 32.06 0.119995C49.27 0.119995 63.27 14.12 63.27 31.33C63.26 48.55 49.27 62.54 32.06 62.54ZM32.06 2.72998C16.28 2.72998 3.44998 15.57 3.44998 31.34C3.44998 47.11 16.29 59.95 32.06 59.95C47.84 59.95 60.67 47.12 60.67 31.34C60.67 15.56 47.83 2.72998 32.06 2.72998Z" fill="url(#paint1_linear)"/>
<defs>
<linearGradient id="paint0_linear" x1="26.0478" y1="31.3378" x2="38.0653" y2="31.3378" gradientUnits="userSpaceOnUse">
<stop offset="0.1911" stop-color="#38B79D"/>
<stop offset="0.9034" stop-color="#10E1A6"/>
</linearGradient>
<linearGradient id="paint1_linear" x1="0.848776" y1="31.3376" x2="63.2642" y2="31.3376" gradientUnits="userSpaceOnUse">
<stop offset="0.1911" stop-color="#38B79D"/>
<stop offset="0.9034" stop-color="#10E1A6"/>
</linearGradient>
</defs>
</svg>
