<svg width="63" height="63" viewBox="0 0 63 63" fill="none" xmlns="http://www.w3.org/2000/svg">
<path d="M31.52 62.54C14.31 62.54 0.309998 48.54 0.309998 31.33C0.309998 14.12 14.31 0.119995 31.52 0.119995C48.73 0.119995 62.73 14.12 62.73 31.33C62.73 48.55 48.73 62.54 31.52 62.54ZM31.52 2.72998C15.74 2.72998 2.91 15.57 2.91 31.34C2.91 47.11 15.74 59.95 31.52 59.95C47.3 59.95 60.13 47.12 60.13 31.34C60.13 15.56 47.3 2.72998 31.52 2.72998Z" fill="url(#paint0_linear)"/>
<path d="M36.95 19.23H26.1C22.41 19.23 19.41 22.23 19.41 25.92V36.77C19.41 40.46 22.41 43.46 26.1 43.46H36.95C40.64 43.46 43.64 40.46 43.64 36.77V25.92C43.63 22.23 40.64 19.23 36.95 19.23ZM41.49 36.76C41.49 39.26 39.46 41.3 36.95 41.3H26.1C23.6 41.3 21.56 39.27 21.56 36.76V25.91C21.56 23.41 23.59 21.37 26.1 21.37H36.95C39.45 21.37 41.49 23.41 41.49 25.91V36.76V36.76Z" fill="url(#paint1_linear)"/>
<path d="M31.52 25.1C28.08 25.1 25.28 27.9 25.28 31.34C25.28 34.78 28.08 37.58 31.52 37.58C34.96 37.58 37.76 34.78 37.76 31.34C37.76 27.9 34.96 25.1 31.52 25.1ZM31.52 35.4301C29.26 35.4301 27.43 33.59 27.43 31.34C27.43 29.08 29.27 27.25 31.52 27.25C33.78 27.25 35.61 29.09 35.61 31.34C35.61 33.59 33.78 35.4301 31.52 35.4301Z" fill="url(#paint2_linear)"/>
<path d="M38.03 23.27C37.62 23.27 37.21 23.44 36.92 23.73C36.63 24.02 36.46 24.43 36.46 24.85C36.46 25.26 36.63 25.67 36.92 25.96C37.21 26.25 37.62 26.42 38.03 26.42C38.45 26.42 38.85 26.25 39.14 25.96C39.43 25.67 39.6 25.26 39.6 24.85C39.6 24.43 39.43 24.03 39.14 23.73C38.85 23.44 38.44 23.27 38.03 23.27Z" fill="url(#paint3_linear)"/>
<defs>
<linearGradient id="paint0_linear" x1="0.316098" y1="31.3376" x2="62.7292" y2="31.3376" gradientUnits="userSpaceOnUse">
<stop offset="0.1911" stop-color="#38B79D"/>
<stop offset="0.9034" stop-color="#10E1A6"/>
</linearGradient>
<linearGradient id="paint1_linear" x1="19.4101" y1="31.3379" x2="43.6343" y2="31.3379" gradientUnits="userSpaceOnUse">
<stop offset="0.1911" stop-color="#38B79D"/>
<stop offset="0.9034" stop-color="#10E1A6"/>
</linearGradient>
<linearGradient id="paint2_linear" x1="25.2806" y1="31.3383" x2="37.7644" y2="31.3383" gradientUnits="userSpaceOnUse">
<stop offset="0.1911" stop-color="#38B79D"/>
<stop offset="0.9034" stop-color="#10E1A6"/>
</linearGradient>
<linearGradient id="paint3_linear" x1="36.4499" y1="24.8499" x2="39.6024" y2="24.8499" gradientUnits="userSpaceOnUse">
<stop offset="0.1911" stop-color="#38B79D"/>
<stop offset="0.9034" stop-color="#10E1A6"/>
</linearGradient>
</defs>
</svg>
