<svg width="63" height="63" viewBox="0 0 63 63" fill="none" xmlns="http://www.w3.org/2000/svg">
<path d="M44.91 22.89C43.9 23.33 42.82 23.63 41.69 23.77C42.85 23.08 43.73 21.9901 44.15 20.6801C43.07 21.3201 41.88 21.78 40.61 22.03C39.58 20.94 38.12 20.26 36.53 20.26C33.44 20.26 30.95 22.77 30.95 25.85C30.95 26.29 30.99 26.72 31.08 27.12C26.44 26.89 22.33 24.67 19.56 21.28C19.08 22.12 18.8 23.07 18.8 24.1C18.8 26.03 19.8 27.75 21.28 28.74C20.38 28.72 19.5 28.46 18.76 28.05C18.76 28.07 18.76 28.09 18.76 28.11C18.76 30.82 20.7 33.08 23.24 33.6C22.79 33.72 22.29 33.78 21.77 33.78C21.41 33.78 21.05 33.7601 20.71 33.6801C21.43 35.8901 23.49 37.5199 25.93 37.5699C24.03 39.0599 21.62 39.95 19 39.95C18.54 39.95 18.1 39.93 17.66 39.87C20.14 41.47 23.07 42.38 26.23 42.38C36.51 42.38 42.13 33.86 42.13 26.48C42.13 26.23 42.12 25.99 42.11 25.76C43.22 25 44.16 24.02 44.91 22.89Z" fill="url(#paint0_linear)"/>
<path d="M31.29 62.54C14.08 62.54 0.0800171 48.54 0.0800171 31.33C0.0800171 14.12 14.08 0.119995 31.29 0.119995C48.5 0.119995 62.5 14.12 62.5 31.33C62.5 48.55 48.5 62.54 31.29 62.54ZM31.29 2.72998C15.51 2.72998 2.68001 15.57 2.68001 31.34C2.68001 47.11 15.51 59.95 31.29 59.95C47.07 59.95 59.9 47.12 59.9 31.34C59.9 15.56 47.07 2.72998 31.29 2.72998Z" fill="url(#paint1_linear)"/>
<defs>
<linearGradient id="paint0_linear" x1="17.664" y1="31.3379" x2="44.9147" y2="31.3379" gradientUnits="userSpaceOnUse">
<stop offset="0.1911" stop-color="#38B79D"/>
<stop offset="0.9034" stop-color="#10E1A6"/>
</linearGradient>
<linearGradient id="paint1_linear" x1="0.0825171" y1="31.3376" x2="62.4952" y2="31.3376" gradientUnits="userSpaceOnUse">
<stop offset="0.1911" stop-color="#38B79D"/>
<stop offset="0.9034" stop-color="#10E1A6"/>
</linearGradient>
</defs>
</svg>
