<svg width="1375" height="1200" viewBox="0 0 1375 1200" fill="none" xmlns="http://www.w3.org/2000/svg">
<path d="M0.47998 1235.94C2.75998 1180.55 42.73 1128.7 95.71 1112.39C150.71 1095.46 212.18 1114.61 266.81 1096.5C315.22 1080.46 350.3 1037.26 371.22 990.75C392.14 944.24 401.43 893.51 415.48 844.49C423.91 815.1 434.38 785.66 452.96 761.38C516.69 678.09 648.04 683.79 726.97 614.73C791.05 558.66 807.01 464.65 800.4 379.76C796.42 328.74 785.83 278.28 784.41 227.13C782.99 175.98 792.93 123.21 822.36 81.35C968.73 -126.8 1413.2 -52.6 1413.2 -52.6L1402.6 1246.86L0.47998 1235.94Z" fill="url(#paint0_linear)"/>
<defs>
<linearGradient id="paint0_linear" x1="706.844" y1="1246.85" x2="706.844" y2="-65.4555" gradientUnits="userSpaceOnUse">
<stop offset="0.0883" stop-color="#007470"/>
<stop offset="0.9838" stop-color="#09D59C"/>
</linearGradient>
</defs>
</svg>
